<?xml version="1.0"?>
<svg xmlns="http://www.w3.org/2000/svg" height="512px" viewBox="-15 0 398 398.816" width="512px" class=""><g><path d="m317.664062 222.816406c-4.144531 0-8.273437.507813-12.296874 1.511719l-16.09375 4c2.167968-14.585937 8.976562-28.085937 19.414062-38.503906l9.375-9.375-11.308594-11.3125-9.378906 9.375c-13.550781 13.5-22.121094 31.191406-24.320312 50.191406l-17.597657-4.40625c-15.164062-3.78125-31.226562-.367187-43.539062 9.253906-12.316407 9.625-19.511719 24.382813-19.511719 40.007813v37.257812c0 48.601563 39.402344 88 88 88 48.601562 0 88-39.398437 88-88v-37.257812c-.035156-28.007813-22.730469-50.707032-50.742188-50.742188zm-45.257812 159.527344c-36.414062-4.109375-63.949219-34.882812-64-71.527344v-37.257812c.050781-18.195313 14.160156-33.257813 32.3125-34.496094l5.9375 4.632812c12.023438 9.378907 20.988281 22.121094 25.75 36.609376zm-1.871094-137.75 7.9375 1.980469c1.269532.328125 2.601563.328125 3.871094 0l7.9375-1.980469c-3.730469 4.421875-7.035156 9.183594-9.875 14.222656-2.835938-5.039062-6.140625-9.800781-9.871094-14.222656zm81.871094 66.222656c-.046875 36.644532-27.585938 67.417969-64 71.527344v-102.039062c4.765625-14.488282 13.726562-27.230469 25.753906-36.609376l5.9375-4.632812c18.152344 1.238281 32.261719 16.300781 32.308594 34.496094zm0 0" data-original="#000000" class="active-path" data-old_color="#000000" fill="#3CDBA4"/><path d="m312.40625 294.816406c-4.417969 0-8 3.582032-8 8v16c0 4.417969 3.582031 8 8 8 4.421875 0 8-3.582031 8-8v-16c0-4.417968-3.578125-8-8-8zm0 0" data-original="#000000" class="active-path" data-old_color="#000000" fill="#3CDBA4"/><path d="m248.40625 294.816406c-4.417969 0-8 3.582032-8 8v16c0 4.417969 3.582031 8 8 8 4.421875 0 8-3.582031 8-8v-16c0-4.417968-3.578125-8-8-8zm0 0" data-original="#000000" class="active-path" data-old_color="#000000" fill="#3CDBA4"/><path d="m188.648438 13.601562-8.480469-13.601562-64 40c-2.347657 1.46875-3.769531 4.046875-3.761719 6.816406v24h-104c-4.417969 0-8 3.582032-8 8v296c0 13.253906 10.746094 24 24 24h112c13.257812 0 24-10.746094 24-24v-296c0-4.417968-3.578125-8-8-8h-24v-19.558594zm-172.242188 73.214844h96v56h-96zm128 288c0 4.417969-3.578125 8-8 8h-112c-4.417969 0-8-3.582031-8-8v-8h128zm0-24h-128v-192h96v160h16v-160h16zm0-264v56h-16v-56zm0 0" data-original="#000000" class="active-path" data-old_color="#000000" fill="#3CDBA4"/></g> </svg>
