<?xml version="1.0"?>
<svg xmlns="http://www.w3.org/2000/svg" height="512px" viewBox="0 -68 512 512" width="512px"><g><path d="m334.394531 53.164062c-83.773437-43.199218-186.707031-10.304687-229.902343 73.472657-43.199219 83.777343-10.300782 186.707031 73.472656 229.902343 24.078125 12.414063 50.761718 18.921876 77.847656 18.980469 17.628906-.019531 35.148438-2.757812 51.941406-8.117187 89.820313-28.574219 139.472656-124.550782 110.898438-214.371094-13.726563-43.148438-44.035156-79.074219-84.257813-99.867188zm58.027344 222.164063c-38.964844 75.351563-131.640625 104.847656-206.992187 65.882813-75.351563-38.964844-104.847657-131.640626-65.882813-206.992188 38.96875-75.351562 131.636719-104.847656 206.988281-65.882812 75.121094 38.210937 105.042969 130.082031 66.828125 205.203124-.304687.597657-.613281 1.195313-.925781 1.789063zm0 0" data-original="#000000" class="active-path" data-old_color="#3cdba4" fill="#3cdba4"/><path d="m76.800781 17.066406c-4.714843 0-8.535156 3.820313-8.535156 8.535156v42.664063h-17.066406v-42.664063c0-4.714843-3.820313-8.535156-8.53125-8.535156-4.714844 0-8.535157 3.820313-8.535157 8.535156v42.664063h-17.066406v-42.664063c0-4.714843-3.820312-8.535156-8.53125-8.535156-4.714844 0-8.535156 3.820313-8.535156 8.535156v68.265626c.0390625 13.359374 6.363281 25.925781 17.066406 33.917968v205.015625c0 14.136719 11.460938 25.597657 25.601563 25.597657 14.136719 0 25.597656-11.460938 25.597656-25.597657v-205.046875c10.695313-7.988281 17.015625-20.539062 17.066406-33.886718v-68.265626c0-4.714843-3.820312-8.535156-8.53125-8.535156zm-34.132812 324.265625c-4.714844 0-8.535157-3.820312-8.535157-8.53125v-110.933593h17.066407v110.933593c0 4.710938-3.820313 8.53125-8.53125 8.53125zm8.53125-136.53125h-17.066407v-69.121093c5.632813 1.148437 11.4375 1.148437 17.066407 0zm17.066406-110.933593c0 14.136718-11.460937 25.597656-25.597656 25.597656-14.140625 0-25.601563-11.460938-25.601563-25.597656v-8.535157h51.199219zm0 0" data-original="#000000" class="active-path" data-old_color="#3cdba4" fill="#3cdba4"/><path d="m318.71875 83.480469c-52.171875-27.183594-115.910156-17.707031-157.917969 23.476562-12.617187 4.328125-19.707031 17.703125-16.210937 30.574219-13.140625 4.824219-19.882813 19.386719-15.0625 32.523438.539062 1.46875 1.214844 2.886718 2.011718 4.230468-3.71875 2.371094-6.753906 5.671875-8.804687 9.574219-1.601563 3.113281-2.542969 6.519531-2.773437 10.011719 0 .109375-.078126.195312-.085938.304687-5.84375 75.179688 50.367188 140.859375 125.542969 146.703125 75.179687 5.84375 140.859375-50.363281 146.703125-125.542968 4.253906-54.707032-24.660156-106.648438-73.402344-131.855469zm20.660156 164.414062c4.1875 2.160157 5.832032 7.304688 3.675782 11.492188-.007813.011719-.011719.019531-.015626.027343-2.164062 4.1875-7.3125 5.824219-11.496093 3.664063-.003907-.003906-.003907-.003906-.007813-.003906-4.183594-2.167969-9.332031-.527344-11.5 3.65625v.003906l-3.917968 7.585937c-2.167969 4.1875-7.316407 5.820313-11.5 3.652344-.003907 0-.003907 0-.003907 0-4.175781-2.164062-9.316406-.542968-11.492187 3.628906-4.328125 8.347657-14.589844 11.625-22.957032 7.328126 14.558594-8.582032 26.953126-20.382813 36.242188-34.5 8.917969-2.1875 17.445312-5.742188 25.277344-10.539063zm-39.953125-9.386719c-2.261719.46875-4.234375 1.835938-5.46875 3.789063-18.679687 29.386719-46.933593 44.738281-71.859375 39.25-14.15625-3.472656-26.269531-12.601563-33.511718-25.25-13.53125-24.65625-16.902344-53.625-9.386719-80.730469 4.828125-20.742187 15.0625-39.835937 29.664062-55.339844 13.867188-16.234374 34.324219-25.347656 55.667969-24.796874 14.417969.058593 28.609375 3.570312 41.386719 10.238281 18.867187 9.457031 33.648437 25.453125 41.59375 45.003906 13.910156 32.160156-.886719 69.507813-33.046875 83.417969-4.8125 2.082031-9.867188 3.5625-15.046875 4.398437zm-161.5625-46.804687c2.171875-4.183594 7.320313-5.816406 11.503907-3.648437 4.183593 2.171874 5.816406 7.320312 3.648437 11.503906-1.039063 2.003906-2.828125 3.515625-4.980469 4.199218-2.15625.707032-4.511718.503907-6.519531-.5625-4.179687-2.167968-5.8125-7.3125-3.652344-11.492187zm8.097657-34.230469c2.167968-4.183594 7.320312-5.816406 11.503906-3.648437s5.820312 7.316406 3.652344 11.5c-2.164063 4.179687-7.300782 5.816406-11.484376 3.660156-4.191406-2.15625-5.839843-7.300781-3.683593-11.492187.003906-.007813.007812-.015626.011719-.027344zm15.132812-23.816406c-.6875-2.152344-.492188-4.492188.542969-6.5 1.039062-1.976562 2.816406-3.464844 4.941406-4.140625.542969-.058594 1.078125-.167969 1.597656-.332031.351563-.070313.707031-.117188 1.066407-.144532 4.710937.007813 8.523437 3.835938 8.515624 8.550782-.003906 1.359375-.328124 2.699218-.957031 3.90625-1.03125 2.019531-2.828125 3.535156-4.992187 4.207031-2.152344.710937-4.503906.511719-6.507813-.554687-2.015625-1.03125-3.53125-2.832032-4.207031-4.992188zm28.714844-17.601562c-1.757813-2.402344-3.925782-4.476563-6.402344-6.128907 9.3125-7.171875 19.636719-12.925781 30.636719-17.066406-6.769531 4.40625-12.816407 9.835937-17.921875 16.09375-2.226563 2.253906-4.300782 4.625-6.3125 7.101563zm11.3125 194.847656c-34.917969-18.023438-58.714844-52.09375-63.613282-91.082032 2.542969.898438 5.21875 1.386719 7.917969 1.441407 2.640625-.007813 5.265625-.417969 7.78125-1.222657 2.039063-.675781 3.980469-1.605468 5.785157-2.773437 1.191406 16.976563 6.359374 33.433594 15.085937 48.042969 9.625 16.566406 25.625 28.449218 44.265625 32.871094 4.585938 1.027343 9.273438 1.539062 13.976562 1.535156 5.742188-.070313 11.453126-.847656 17.007813-2.3125l12.917969 6.675781c4.828125 2.519531 10.195312 3.835937 15.640625 3.839844 3.527343-.003907 7.035156-.550781 10.394531-1.621094 6.214844-1.964844 11.734375-5.679687 15.898438-10.695313 10.988281 1.859376 21.921874-3.582031 27.058593-13.472656l.675781-1.304687c7.855469 1.089843 15.769532-1.523438 21.433594-7.074219-34.425781 48.542969-99.3125 64.375-152.226562 37.136719zm161-51.199219c-.855469 1.707031-1.902344 3.242187-2.851563 4.875 4.746094-12.121094-.464843-25.863281-12.046875-31.796875l-.855468-.425781c5.796874-5.691407 10.660156-12.25 14.421874-19.449219 7.433594-14.5 10.230469-30.933594 8.003907-47.078125.316406.929687.726562 1.816406 1.023437 2.757813 9.6875 30.167968 6.917969 62.953124-7.695312 91.066406zm0 0" data-original="#000000" class="active-path" data-old_color="#3cdba4" fill="#3cdba4"/><path d="m268.535156 124.792969 45.492188 23.515625c4.1875 2.167968 9.335937.527344 11.503906-3.660156 2.164062-4.1875.523438-9.335938-3.664062-11.503907l-45.480469-23.515625c-4.1875-2.167968-9.339844-.527344-11.503907 3.660156-2.164062 4.1875-.527343 9.335938 3.660157 11.503907zm0 0" data-original="#000000" class="active-path" data-old_color="#3cdba4" fill="#3cdba4"/><path d="m328.917969 175.222656-90.957031-47.042968c-4.191407-2.164063-9.34375-.523438-11.507813 3.664062-2.164063 4.191406-.523437 9.34375 3.664063 11.507812l90.957031 47.042969c4.191406 2.167969 9.34375.527344 11.507812-3.664062 2.164063-4.1875.523438-9.339844-3.664062-11.507813zm0 0" data-original="#000000" class="active-path" data-old_color="#3cdba4" fill="#3cdba4"/><path d="m313.242188 205.542969-90.957032-47.035157c-4.191406-2.167968-9.34375-.527343-11.507812 3.664063-2.164063 4.1875-.523438 9.339844 3.664062 11.507813l90.957032 47.027343c4.1875 2.164063 9.339843.527344 11.503906-3.660156 2.164062-4.1875.527344-9.339844-3.660156-11.503906zm0 0" data-original="#000000" class="active-path" data-old_color="#3cdba4" fill="#3cdba4"/><path d="m274.824219 224.101562-68.265625-35.277343c-4.1875-2.164063-9.339844-.523438-11.503906 3.660156-2.164063 4.1875-.527344 9.339844 3.660156 11.503906l68.226562 35.277344c4.1875 2.164063 9.335938.527344 11.5-3.660156 2.167969-4.1875.527344-9.335938-3.660156-11.503907zm0 0" data-original="#000000" class="active-path" data-old_color="#3cdba4" fill="#3cdba4"/><path d="m243.984375 246.613281-37.90625-19.625c-4.1875-2.167969-9.335937-.527343-11.5 3.660157-2.167969 4.1875-.527344 9.335937 3.660156 11.5l37.90625 19.628906c4.1875 2.164062 9.339844.523437 11.503907-3.664063 2.167968-4.191406.527343-9.34375-3.664063-11.507812zm0 0" data-original="#000000" class="active-path" data-old_color="#3cdba4" fill="#3cdba4"/><path d="m503.464844 211.34375v-202.808594c0-4.714844-3.820313-8.535156-8.53125-8.535156-32.972656.0390625-59.695313 26.757812-59.734375 59.734375v102.398437c.003906 1.6875.5 3.332032 1.433593 4.738282l15.632813 23.421875v21.0625c-5.601563 11.917969-8.515625 24.921875-8.53125 38.089843v83.355469c0 18.851563 15.28125 34.132813 34.132813 34.132813 18.851562 0 34.132812-15.28125 34.132812-34.132813v-83.363281c-.015625-13.167969-2.929688-26.175781-8.535156-38.09375zm-51.199219-151.609375c.027344-20.269531 14.28125-37.730469 34.132813-41.8125v186.878906h-17.066407v-17.066406c0-1.6875-.5-3.332031-1.433593-4.738281l-15.632813-23.480469zm42.667969 273.066406c0 9.425781-7.640625 17.066407-17.066406 17.066407-9.425782 0-17.066407-7.640626-17.066407-17.066407v-83.363281c.050781-9.46875 1.957031-18.832031 5.605469-27.570312h22.921875c3.648437 8.738281 5.550781 18.101562 5.605469 27.570312zm0 0" data-original="#000000" class="active-path" data-old_color="#3cdba4" fill="#3cdba4"/></g> </svg>
