<?xml version="1.0"?>
<svg xmlns="http://www.w3.org/2000/svg" xmlns:xlink="http://www.w3.org/1999/xlink" version="1.1" id="Capa_1" x="0px" y="0px" viewBox="0 0 480 480" style="enable-background:new 0 0 480 480;" xml:space="preserve" width="512px" height="512px"><g><g>
	<g>
		<rect x="256" y="304" width="16" height="16" data-original="#000000" class="active-path" data-old_color="#000000" fill="#3CDBA4"/>
	</g>
</g><g>
	<g>
		<rect x="288" y="320" width="16" height="16" data-original="#000000" class="active-path" data-old_color="#000000" fill="#3CDBA4"/>
	</g>
</g><g>
	<g>
		<path d="M248,392c-17.648,0-32,12.56-32,28s14.352,28,32,28s32-12.56,32-28S265.648,392,248,392z M248,432    c-8.672,0-16-5.496-16-12c0-6.504,7.328-12,16-12s16,5.496,16,12C264,426.504,256.672,432,248,432z" data-original="#000000" class="active-path" data-old_color="#000000" fill="#3CDBA4"/>
	</g>
</g><g>
	<g>
		<path d="M352,40c-1.28,0-128,0.864-128,32v32c0,1.832,0.472,3.56,1.304,5.184l10.344,164.608    c-15.472,1.272-30.216,3.272-43.64,5.976V240v-48v-40c0-1.144-0.24-2.272-0.72-3.312L155.48,69.92C158.296,65.984,160,61.2,160,56    V24c0-13.232-10.768-24-24-24H56C42.768,0,32,10.768,32,24v32c0,5.2,1.704,9.984,4.52,13.92l-35.8,78.768    C0.24,149.728,0,150.856,0,152v40v48v168c0,30.872,25.128,56,56,56h80c6.272,0,12.4-1.08,18.296-3.136    C183.104,473.904,231.64,480,280,480c71.968,0,144.408-13.472,151.32-43.32c0.408-1.544,0.68-3.104,0.68-4.68v-54.864V376h24    c4.232,0,7.744-3.304,7.984-7.528l15.192-260.48C479.664,106.712,480,105.4,480,104V72C480,40.864,353.28,40,352,40z M352,56    c53.224,0,99.568,9.008,110.472,15.992c-0.04,0.024-0.048,0.048-0.088,0.072c-0.144,0.088-0.352,0.184-0.504,0.272    c-0.624,0.368-1.296,0.736-2.104,1.112c-0.28,0.128-0.624,0.256-0.92,0.392c-0.792,0.344-1.6,0.68-2.528,1.032    c-0.392,0.144-0.848,0.288-1.264,0.44c-0.944,0.328-1.912,0.664-2.984,0.992c-0.504,0.152-1.064,0.312-1.592,0.464    c-1.088,0.32-2.208,0.64-3.4,0.96c-0.616,0.16-1.264,0.32-1.904,0.48c-1.216,0.304-2.464,0.616-3.776,0.912    c-0.72,0.168-1.472,0.328-2.224,0.496c-1.344,0.296-2.712,0.584-4.136,0.872c-0.816,0.16-1.648,0.32-2.488,0.48    c-1.448,0.28-2.928,0.552-4.448,0.816c-0.92,0.16-1.848,0.32-2.792,0.472c-1.536,0.256-3.12,0.504-4.728,0.752    c-1.008,0.152-2.016,0.304-3.048,0.456c-1.616,0.232-3.272,0.456-4.944,0.672c-1.104,0.144-2.208,0.288-3.336,0.424    c-1.688,0.208-3.416,0.4-5.16,0.592c-1.184,0.128-2.352,0.264-3.56,0.384c-1.76,0.176-3.56,0.344-5.368,0.504    c-1.248,0.112-2.48,0.232-3.744,0.336c-1.848,0.152-3.744,0.288-5.632,0.416c-1.272,0.088-2.52,0.184-3.808,0.264    c-1.984,0.12-4.008,0.224-6.032,0.32c-1.248,0.064-2.472,0.136-3.728,0.184c-2.232,0.096-4.512,0.16-6.784,0.224    c-1.08,0.032-2.144,0.072-3.224,0.096C358.848,87.96,355.44,88,352,88s-6.848-0.04-10.224-0.112    c-1.088-0.024-2.144-0.072-3.224-0.096c-2.272-0.064-4.544-0.128-6.784-0.224c-1.256-0.056-2.48-0.128-3.728-0.184    c-2.024-0.104-4.048-0.2-6.032-0.32c-1.288-0.08-2.544-0.176-3.808-0.264c-1.888-0.136-3.776-0.264-5.624-0.416    c-1.264-0.104-2.504-0.224-3.744-0.336c-1.8-0.16-3.608-0.328-5.36-0.504c-1.2-0.12-2.376-0.256-3.56-0.384    c-1.736-0.192-3.472-0.384-5.16-0.592c-1.128-0.136-2.232-0.28-3.336-0.424c-1.672-0.216-3.328-0.44-4.944-0.672    c-1.032-0.144-2.04-0.296-3.048-0.456c-1.608-0.248-3.184-0.496-4.728-0.752c-0.944-0.16-1.872-0.312-2.792-0.472    c-1.52-0.264-3.008-0.536-4.448-0.816c-0.84-0.16-1.672-0.32-2.488-0.48c-1.424-0.288-2.8-0.576-4.136-0.872    c-0.752-0.16-1.504-0.328-2.224-0.496c-1.312-0.304-2.56-0.608-3.776-0.912c-0.64-0.16-1.296-0.32-1.912-0.488    c-1.192-0.32-2.304-0.632-3.392-0.952c-0.536-0.16-1.088-0.312-1.6-0.472c-1.072-0.328-2.04-0.664-2.984-0.992    c-0.416-0.144-0.872-0.288-1.264-0.44c-0.936-0.344-1.744-0.688-2.528-1.032c-0.296-0.128-0.648-0.264-0.92-0.392    c-0.808-0.376-1.48-0.744-2.104-1.112c-0.152-0.088-0.36-0.184-0.504-0.272c-0.04-0.024-0.048-0.048-0.088-0.072    C252.432,65.008,298.776,56,352,56z M189.176,296.848c14.808-3.432,33.28-6.2,55.368-7.672c0.04-0.008,0.072,0.016,0.112,0.008    C256.464,288.4,268.352,288,280,288c5.512,0,10.848,0.08,16.032,0.224C296.184,305.768,314.04,320,336,320    c17.856,0,32.832-9.472,37.96-22.416C401.936,304.472,416,313.624,416,320c0,11.488-45.448,32-136,32    c-6.08,0-11.912-0.104-17.584-0.28c1.008-2.496,1.584-5.072,1.584-7.72c0-18.24-24.08-32-56-32    c-24.152,0-43.888,7.912-51.968,19.8c-4.24-2.248-7.368-4.48-9.352-6.6c-0.312-0.616-0.576-1.264-1.04-1.8l-0.232,0.176    c-0.016-0.024-0.032-0.04-0.04-0.064l0.2-0.216c-0.208-0.256-0.496-0.384-0.728-0.616c-0.112-0.336-0.072-0.688-0.232-1.016    c-0.04-0.088-0.112-0.208-0.192-0.36c-0.048-0.088-0.104-0.184-0.16-0.288C144.168,320.688,144,320.328,144,320    c0-0.424,0.192-0.88,0.312-1.32c1.896-4.776,13.624-13.104,41.608-20.032C187.184,298.336,188.24,297.656,189.176,296.848z     M312.048,288.968c11.976,0.712,23.28,1.84,33.864,3.328c0.752,0.104,1.52,0.208,2.256,0.32c2.656,0.392,5.248,0.824,7.808,1.264    c0.688,0.12,1.368,0.24,2.04,0.368C354.288,299.92,345.712,304,336,304C323.48,304,312.832,297.208,312.048,288.968z M248,344    c0,2.072-1.68,4.456-4.664,6.736c-2.792-0.192-5.608-0.384-8.28-0.616c-1.296-0.112-2.56-0.248-3.84-0.368    c-2.88-0.28-5.688-0.576-8.424-0.896c-1.192-0.136-2.384-0.28-3.56-0.424c-7.896-1.008-15.208-2.176-21.864-3.488    c-0.128-0.024-0.264-0.056-0.392-0.08c-9.904-1.968-18.36-4.24-25.488-6.624C177.336,333,190.424,328,208,328    C232.416,328,248,337.48,248,344z M48,24c0-4.416,3.584-8,8-8h80c4.416,0,8,3.584,8,8v32c0,2.864-1.592,5.256-3.848,6.672    C139.112,63.352,137.784,64,136,64H56c-1.784,0-3.112-0.648-4.152-1.328C49.592,61.256,48,58.864,48,56V24z M16,153.736    l33.88-74.544c0.152,0.04,0.312,0.024,0.464,0.064C52.168,79.704,54.048,80,56,80h80c1.952,0,3.832-0.296,5.648-0.744    c0.152-0.04,0.312-0.024,0.464-0.064L176,153.736V184h-34.096c-10.416-14.912-27.592-24-45.904-24s-35.496,9.088-45.904,24H16    V153.736z M16,200h38.48c2.848,0,5.496-1.52,6.92-3.992C68.536,183.664,81.8,176,96,176s27.464,7.664,34.6,20.008    c1.432,2.472,4.072,3.992,6.92,3.992H176v32h-38.48c-2.848,0-5.496,1.52-6.92,3.992C123.464,248.336,110.2,256,96,256    s-27.464-7.664-34.6-20.008C59.968,233.52,57.328,232,54.48,232H16V200z M128.8,314.528c-0.528,1.776-0.8,3.6-0.8,5.472v48v32v32    c0,1.688,0.288,3.336,0.72,4.952c0.248,1.008,0.632,1.984,1.024,2.96c0.104,0.24,0.208,0.472,0.328,0.712    c1.16,2.584,2.728,5.064,4.88,7.376H56c-22.056,0-40-17.944-40-40V248h34.096C60.512,262.912,77.688,272,96,272    s35.496-9.088,45.904-24H176v35.472C150.52,290.432,132.56,300.688,128.8,314.528z M144,376c4.416,0,8,3.584,8,8    c0,4.416-3.584,8-8,8V376z M416,432c-13.232,0-24-10.768-24-24s10.768-24,24-24V432z M416.008,368c-22.056,0-40,17.944-40,40    c0,16.872,10.536,31.256,25.336,37.128C381.36,454.704,340.944,464,280,464c-57.872,0-97.224-8.384-118.16-17.424    c-0.736-0.872-1.6-1.64-2.672-2.136c-9.56-4.432-13.816-8.536-14.872-11.192C144.184,432.832,144,432.4,144,432v-24    c13.232,0,24-10.768,24-24s-10.768-24-24-24v-16.544c0.944,0.6,2.008,1.168,3.024,1.752c0.512,0.288,0.992,0.592,1.52,0.88    c2.264,1.224,4.688,2.4,7.264,3.512c0.496,0.216,1.032,0.408,1.536,0.624c2.192,0.912,4.48,1.784,6.864,2.624    c0.792,0.28,1.576,0.552,2.384,0.824c2.672,0.888,5.44,1.744,8.32,2.552c0.312,0.088,0.6,0.184,0.912,0.272    c3.232,0.888,6.6,1.704,10.056,2.488c0.848,0.192,1.72,0.368,2.584,0.56c2.784,0.6,5.632,1.168,8.536,1.696    c0.888,0.16,1.768,0.336,2.672,0.488c3.696,0.648,7.464,1.248,11.32,1.792c0.416,0.056,0.84,0.104,1.248,0.16    c3.184,0.44,6.416,0.84,9.688,1.208c0.536,0.064,1.072,0.128,1.616,0.184c0.856,0.096,1.728,0.176,2.584,0.264    c2.016,0.208,4.032,0.408,6.072,0.592c0.816,0.072,1.6,0.168,2.416,0.24l2.032,0.152c0.072,0.008,0.144,0.008,0.216,0.016    c0.536,0.04,1.064,0.088,1.592,0.128c4.088,0.312,8.216,0.576,12.376,0.792c1,0.056,2.008,0.088,3.008,0.136    c3.288,0.152,6.584,0.28,9.904,0.368c1.184,0.032,2.368,0.072,3.56,0.096c4.24,0.08,8.464,0.144,12.696,0.144    s8.456-0.064,12.68-0.16c1.192-0.024,2.368-0.064,3.56-0.096c3.312-0.096,6.616-0.216,9.904-0.368c1-0.048,2.008-0.08,3.008-0.136    c4.16-0.216,8.288-0.48,12.384-0.792c0.768-0.056,1.528-0.136,2.296-0.192c3.384-0.272,6.728-0.584,10.04-0.928    c1.112-0.112,2.224-0.232,3.328-0.352c3.568-0.392,7.096-0.824,10.56-1.304c0.416-0.056,0.84-0.104,1.248-0.16    c3.856-0.544,7.624-1.152,11.32-1.792c0.904-0.16,1.776-0.328,2.672-0.488c2.912-0.536,5.752-1.104,8.536-1.696    c0.864-0.184,1.736-0.368,2.584-0.56c3.456-0.784,6.824-1.6,10.056-2.488c0.312-0.088,0.6-0.184,0.912-0.264    c2.88-0.808,5.648-1.664,8.328-2.552c0.808-0.272,1.592-0.544,2.384-0.816c2.384-0.84,4.672-1.712,6.864-2.624    c0.504-0.208,1.04-0.408,1.536-0.624c2.576-1.12,4.992-2.288,7.264-3.512c0.528-0.288,1.008-0.584,1.52-0.88    c1.016-0.576,2.08-1.144,3.024-1.752V368z M448.456,360H432v-40c0-33.16-76.344-48-152-48c-9.504,0-19.016,0.232-28.392,0.712    L242.12,121.6c26.312,10.272,76.6,14.352,109.352,14.392c0.304,0,0.496,0,0.536,0c0.04,0,0.232,0,0.528,0    c33.24-0.04,83.632-4.192,109.84-14.6L448.456,360z M464,102.712c-0.2,0.216-0.432,0.432-0.704,0.648    c-0.232,0.184-0.448,0.36-0.728,0.544c-0.432,0.28-0.952,0.568-1.496,0.864c-0.352,0.184-0.688,0.368-1.08,0.56    c-0.616,0.296-1.328,0.592-2.056,0.888c-0.472,0.192-0.92,0.384-1.44,0.576c-0.784,0.296-1.664,0.592-2.552,0.888    c-0.592,0.2-1.168,0.392-1.8,0.592c-0.944,0.288-1.976,0.584-3.008,0.872c-0.712,0.2-1.4,0.4-2.152,0.6    c-1.072,0.28-2.24,0.56-3.392,0.848c-0.832,0.2-1.648,0.408-2.52,0.608c-1.2,0.272-2.48,0.544-3.752,0.808    c-0.952,0.2-1.872,0.4-2.864,0.6c-1.296,0.256-2.672,0.504-4.032,0.752c-1.072,0.2-2.12,0.4-3.232,0.592    c-1.384,0.24-2.848,0.464-4.288,0.696c-1.192,0.192-2.352,0.384-3.584,0.568c-1.464,0.216-3,0.416-4.512,0.624    c-1.296,0.176-2.56,0.36-3.888,0.528c-1.6,0.2-3.264,0.384-4.912,0.576c-1.32,0.152-2.608,0.312-3.952,0.456    c-1.728,0.184-3.512,0.344-5.288,0.512c-1.352,0.128-2.68,0.264-4.064,0.384c-1.752,0.152-3.568,0.272-5.36,0.4    c-1.464,0.104-2.896,0.224-4.384,0.32c-1.944,0.128-3.944,0.216-5.936,0.32c-1.36,0.072-2.704,0.16-4.08,0.216    c-2.328,0.104-4.696,0.168-7.064,0.232c-1.104,0.032-2.184,0.08-3.288,0.104C359.088,119.96,355.56,120,352,120    s-7.096-0.04-10.584-0.12c-0.936-0.024-1.856-0.064-2.784-0.088c-2.544-0.072-5.096-0.144-7.592-0.256    c-0.952-0.04-1.872-0.104-2.816-0.152c-2.448-0.12-4.896-0.24-7.296-0.4c-0.808-0.056-1.584-0.12-2.392-0.176    c-2.504-0.176-5-0.352-7.424-0.56c-0.576-0.048-1.128-0.112-1.704-0.16c-2.624-0.232-5.232-0.48-7.76-0.744    c-0.336-0.04-0.656-0.08-0.992-0.112c-2.72-0.296-5.4-0.608-8-0.936c-0.184-0.024-0.36-0.048-0.552-0.072    c-28.168-3.64-48.216-9.224-52.112-13.608V88.592c0.208,0.088,0.456,0.168,0.664,0.256c1.696,0.72,3.496,1.4,5.384,2.056    c0.488,0.168,0.968,0.344,1.472,0.512c2.12,0.696,4.32,1.36,6.624,1.984c0.496,0.136,1,0.256,1.504,0.384    c2.048,0.536,4.144,1.04,6.296,1.52c0.504,0.112,1,0.232,1.512,0.344c2.48,0.536,5.024,1.032,7.6,1.496    c0.64,0.12,1.288,0.224,1.936,0.336c2.328,0.4,4.672,0.784,7.04,1.144c0.4,0.056,0.792,0.128,1.184,0.184    c2.672,0.392,5.352,0.744,8.04,1.08c0.696,0.088,1.392,0.168,2.088,0.256c2.624,0.312,5.248,0.608,7.84,0.872    c0.16,0.016,0.312,0.032,0.464,0.048c2.632,0.264,5.224,0.504,7.784,0.72c0.648,0.056,1.288,0.112,1.936,0.168    c2.528,0.208,5.008,0.4,7.416,0.568c0.4,0.032,0.776,0.048,1.168,0.08c2.152,0.144,4.24,0.28,6.264,0.392    c0.52,0.032,1.04,0.064,1.544,0.088c2.208,0.12,4.32,0.232,6.32,0.32c0.424,0.016,0.808,0.032,1.224,0.056    c1.752,0.08,3.416,0.144,4.968,0.2c0.304,0.008,0.624,0.024,0.92,0.032c1.712,0.064,3.256,0.104,4.664,0.144    c0.352,0.008,0.64,0.016,0.968,0.024c1.264,0.032,2.416,0.056,3.368,0.08c0.04,0,0.096,0,0.136,0c1,0.016,1.76,0.032,2.36,0.04    c0.264,0,0.384,0.008,0.568,0.008C351.664,104,351.952,104,352,104c0.048,0,0.336,0,0.736-0.008c0.184,0,0.304,0,0.568-0.008    c0.6-0.008,1.36-0.016,2.36-0.04c0.04,0,0.096,0,0.136,0c0.952-0.016,2.104-0.048,3.368-0.08c0.328-0.008,0.624-0.016,0.968-0.024    c1.408-0.04,2.952-0.088,4.664-0.144c0.304-0.008,0.616-0.024,0.928-0.032c1.552-0.056,3.208-0.128,4.96-0.2    c0.416-0.016,0.8-0.032,1.224-0.056c2-0.096,4.112-0.2,6.32-0.32c0.512-0.032,1.024-0.056,1.544-0.088    c2.024-0.12,4.104-0.248,6.264-0.392c0.392-0.024,0.768-0.048,1.168-0.08c2.408-0.168,4.888-0.36,7.416-0.568    c0.64-0.056,1.288-0.112,1.936-0.168c2.56-0.224,5.152-0.456,7.784-0.72c0.152-0.016,0.312-0.032,0.464-0.048    c2.592-0.264,5.216-0.56,7.84-0.872c0.696-0.08,1.392-0.168,2.088-0.256c2.688-0.336,5.368-0.688,8.04-1.08    c0.4-0.056,0.792-0.128,1.192-0.184c2.368-0.352,4.712-0.736,7.032-1.144c0.648-0.112,1.296-0.224,1.944-0.336    c2.576-0.464,5.12-0.96,7.6-1.496c0.512-0.112,1.008-0.232,1.512-0.344c2.152-0.48,4.256-0.984,6.296-1.52    c0.496-0.128,1.008-0.256,1.504-0.384c2.296-0.624,4.504-1.288,6.624-1.984c0.504-0.168,0.984-0.336,1.472-0.512    c1.88-0.656,3.688-1.336,5.384-2.056c0.208-0.096,0.456-0.176,0.664-0.264V102.712z" data-original="#000000" class="active-path" data-old_color="#000000" fill="#3CDBA4"/>
	</g>
</g><g>
	<g>
		<path d="M416,152h-8c-24.08,0-45.08,13.384-56,33.088C341.08,165.384,320.08,152,296,152h-8c-4.424,0-8,3.576-8,8v8    c0,35.288,28.712,64,64,64v24h16v-24c35.288,0,64-28.712,64-64v-8C424,155.576,420.424,152,416,152z M296,168    c26.472,0,48,21.528,48,48C317.528,216,296,194.472,296,168z M360,216c0-26.472,21.528-48,48-48C408,194.472,386.472,216,360,216z    " data-original="#000000" class="active-path" data-old_color="#000000" fill="#3CDBA4"/>
	</g>
</g></g> </svg>
